<?xml version="1.0" standalone="no"?>
<!DOCTYPE svg PUBLIC "-//W3C//DTD SVG 20010904//EN"
 "http://www.w3.org/TR/2001/REC-SVG-20010904/DTD/svg10.dtd">
<svg version="1.0" xmlns="http://www.w3.org/2000/svg"
 width="2000.000000pt" height="2000.000000pt" viewBox="0 0 2000.000000 2000.000000"
 preserveAspectRatio="xMidYMid meet">

<g transform="translate(0.000000,2000.000000) scale(0.100000,-0.100000)"
fill="#000000" stroke="none">
<path d="M10333 16316 c-16 -12 -190 -26 -351 -30 -29 0 -56 -6 -60 -12 -4 -7
-54 -15 -120 -19 -75 -5 -115 -12 -120 -20 -6 -12 -84 -24 -156 -25 -16 0 -38
-7 -49 -15 -12 -8 -39 -15 -60 -15 -21 0 -49 -7 -63 -16 -14 -10 -54 -19 -97
-21 -40 -3 -76 -11 -82 -18 -5 -6 -31 -14 -56 -17 -26 -3 -61 -13 -79 -22 -18
-9 -49 -16 -69 -16 -24 0 -42 -7 -54 -20 -11 -13 -31 -21 -54 -22 -56 -2 -59
-2 -74 -14 -8 -6 -31 -14 -53 -17 -21 -3 -43 -13 -50 -20 -6 -8 -32 -18 -58
-21 -26 -4 -49 -13 -52 -21 -3 -10 -19 -15 -44 -15 -26 0 -45 -7 -57 -20 -10
-11 -31 -20 -47 -20 -16 0 -31 -6 -34 -15 -4 -9 -26 -17 -56 -21 -27 -4 -52
-13 -55 -20 -3 -8 -18 -14 -34 -14 -18 0 -34 -8 -41 -20 -8 -12 -24 -20 -39
-20 -14 0 -36 -9 -49 -20 -13 -11 -33 -20 -45 -20 -13 0 -28 -7 -35 -15 -7 -8
-21 -15 -30 -15 -29 0 -50 -11 -50 -26 0 -8 -8 -14 -19 -14 -10 0 -30 -9 -44
-20 -14 -11 -36 -20 -49 -20 -13 0 -31 -9 -41 -20 -9 -11 -26 -20 -37 -20 -11
0 -23 -6 -26 -14 -3 -8 -19 -18 -36 -21 -16 -4 -32 -13 -35 -21 -3 -8 -14 -14
-24 -14 -10 0 -28 -9 -39 -20 -11 -11 -28 -20 -38 -20 -10 0 -25 -9 -35 -20
-9 -11 -25 -20 -36 -20 -10 0 -21 -6 -24 -14 -3 -8 -19 -17 -36 -21 -17 -4
-31 -10 -31 -15 0 -4 -12 -13 -27 -19 -41 -17 -87 -43 -93 -52 -6 -8 -78 -59
-84 -59 -9 0 -175 -116 -217 -151 -26 -22 -50 -39 -53 -39 -3 0 -14 -7 -23
-15 -10 -9 -76 -61 -148 -116 -71 -56 -144 -115 -160 -132 -17 -18 -53 -50
-80 -72 -104 -82 -393 -366 -520 -510 -33 -38 -78 -87 -100 -110 -55 -58 -124
-141 -159 -190 -15 -22 -33 -44 -40 -50 -20 -18 -93 -109 -105 -132 -6 -13
-43 -65 -81 -115 -39 -51 -70 -103 -70 -115 0 -12 -6 -26 -13 -30 -8 -4 -22
-21 -32 -38 -10 -16 -27 -40 -38 -52 -20 -23 -37 -49 -59 -93 -6 -14 -26 -45
-42 -70 -44 -63 -53 -79 -77 -128 -12 -23 -25 -45 -30 -48 -5 -3 -9 -12 -9
-20 0 -9 -16 -39 -35 -68 -19 -29 -35 -61 -35 -70 0 -10 -9 -29 -20 -43 -11
-14 -20 -31 -20 -37 0 -6 -15 -34 -33 -62 -18 -27 -41 -69 -50 -92 -9 -22 -26
-63 -38 -89 -48 -107 -57 -129 -63 -155 -4 -16 -20 -49 -36 -75 -16 -25 -33
-62 -36 -81 -4 -20 -21 -67 -39 -106 -18 -39 -37 -91 -43 -116 -6 -25 -24 -81
-41 -125 -34 -91 -86 -269 -106 -365 -7 -36 -25 -99 -38 -140 -13 -41 -27
-101 -31 -133 -3 -32 -13 -71 -21 -86 -8 -16 -19 -66 -25 -112 -5 -46 -14
-100 -20 -119 -5 -19 -10 -54 -10 -78 0 -24 -9 -87 -19 -140 -11 -56 -22 -166
-26 -259 -3 -89 -10 -175 -15 -192 -14 -50 -21 -554 -9 -676 6 -60 12 -144 14
-185 5 -130 25 -303 40 -360 9 -30 20 -100 25 -155 11 -103 22 -177 40 -255 6
-25 14 -67 18 -95 5 -27 14 -60 21 -73 6 -12 14 -52 18 -90 3 -37 10 -73 16
-80 9 -12 23 -63 34 -130 3 -18 9 -35 14 -38 5 -3 9 -14 9 -24 0 -11 6 -39 14
-62 7 -24 19 -63 26 -88 6 -25 15 -52 19 -60 5 -8 18 -49 31 -90 13 -41 33
-88 45 -105 12 -16 25 -41 28 -55 13 -68 37 -139 56 -171 11 -18 21 -44 21
-56 0 -12 5 -25 10 -28 6 -3 10 -15 10 -26 0 -11 9 -37 20 -57 11 -20 31 -64
46 -97 76 -174 154 -329 206 -409 21 -33 38 -68 38 -77 0 -10 5 -21 11 -24 5
-4 14 -17 19 -28 17 -40 184 -305 235 -373 28 -37 70 -100 95 -139 46 -74 86
-128 175 -238 28 -34 63 -81 79 -105 52 -76 315 -363 510 -556 179 -176 325
-306 491 -436 39 -30 73 -58 76 -62 3 -5 30 -25 61 -46 30 -20 95 -67 143
-105 49 -37 92 -67 96 -67 7 0 53 -30 164 -107 74 -52 146 -93 173 -99 15 -4
34 -15 42 -25 8 -10 58 -40 110 -68 52 -28 111 -59 130 -69 127 -68 294 -151
336 -166 27 -11 96 -41 152 -68 57 -26 122 -52 144 -57 22 -5 47 -16 56 -23 9
-8 53 -27 97 -43 44 -15 92 -34 108 -42 15 -7 68 -22 118 -33 50 -10 101 -25
113 -34 13 -8 47 -21 77 -30 30 -8 122 -33 204 -57 83 -23 175 -45 206 -49 31
-4 71 -12 90 -18 19 -6 54 -13 79 -17 25 -4 79 -13 120 -21 146 -29 461 -68
675 -84 113 -8 547 -11 805 -5 90 2 279 19 320 30 14 3 68 10 120 15 161 16
314 37 342 48 14 6 55 14 90 17 64 6 71 8 218 45 47 13 103 26 125 31 49 10
179 44 220 58 17 5 71 21 120 36 50 14 98 30 107 36 22 12 90 36 148 54 91 27
225 78 240 90 8 7 51 25 95 40 44 15 87 33 95 40 8 7 26 16 40 20 14 4 32 13
40 20 8 8 29 17 45 20 41 10 310 143 365 180 25 17 74 46 110 64 36 18 97 52
135 77 39 24 77 47 85 51 8 4 36 22 62 40 26 18 52 33 56 33 5 0 17 9 27 20
10 11 22 20 28 20 5 0 26 14 47 30 42 33 107 81 188 136 28 20 52 40 52 45 0
5 8 13 19 17 17 7 79 54 122 95 11 9 23 17 29 17 5 0 14 9 20 20 6 11 15 20
20 20 4 0 26 17 48 38 70 65 125 112 133 112 5 0 13 9 19 20 6 11 15 20 21 20
5 0 34 25 64 55 29 30 56 55 59 55 4 0 26 21 49 46 73 79 97 104 102 104 8 0
55 51 55 60 0 6 7 10 15 10 9 0 19 8 22 18 4 9 38 47 75 83 37 36 68 69 68 73
0 3 8 14 18 25 9 10 28 33 42 52 14 18 39 48 56 66 17 18 34 39 37 48 4 8 13
15 22 15 8 0 15 9 15 20 0 11 4 20 10 20 5 0 16 12 24 28 8 15 29 42 46 61 16
18 30 38 30 42 0 5 6 9 14 9 8 0 18 10 22 22 3 12 15 31 25 42 11 11 19 25 19
32 0 6 7 14 15 18 8 3 15 11 15 18 0 6 18 33 40 59 22 26 40 53 40 59 0 6 7
13 15 16 8 4 15 15 15 25 0 10 10 29 23 41 12 13 30 38 40 56 10 19 27 43 38
55 10 11 19 26 19 33 0 6 7 14 15 18 8 3 15 14 15 24 0 11 9 31 20 45 11 14
20 30 20 36 0 6 4 11 8 11 5 0 16 16 25 35 9 19 21 35 26 35 5 0 12 16 15 36
4 19 14 38 22 41 7 3 14 11 14 18 0 21 53 117 67 122 7 3 13 17 13 33 0 15 9
35 20 45 11 10 20 25 20 34 0 9 7 25 15 35 8 11 15 27 15 36 0 8 9 21 20 28
14 8 20 23 20 47 0 22 6 38 15 41 8 3 17 21 21 40 3 18 12 38 20 45 8 6 14 20
14 30 0 11 9 27 20 36 12 11 20 30 20 50 0 30 27 92 63 144 10 13 17 40 17 60
0 20 6 42 14 48 8 7 18 26 22 44 3 17 13 37 20 45 8 7 14 30 14 50 0 20 9 51
20 67 11 17 20 45 20 63 0 17 4 32 9 32 13 0 31 57 31 97 0 18 6 44 14 56 8
12 17 38 20 58 4 21 13 42 21 49 10 9 15 32 15 77 0 38 6 76 15 93 9 16 18 51
21 77 3 27 12 62 19 78 7 17 16 54 19 84 4 30 14 63 22 75 8 12 14 46 14 86 1
36 8 83 17 105 10 26 19 97 24 205 5 91 16 192 24 226 11 43 15 115 15 251 0
163 3 196 17 221 17 29 17 33 0 79 -22 61 -22 103 0 148 16 33 16 38 0 68 -13
26 -17 72 -20 259 -3 196 -6 230 -20 246 -14 15 -17 40 -17 130 0 85 -3 114
-15 125 -10 11 -17 48 -22 119 -4 69 -11 106 -20 113 -9 7 -15 39 -17 94 -3
55 -9 90 -19 101 -14 17 -27 84 -27 146 0 17 -6 37 -15 44 -8 7 -15 28 -15 48
0 19 -7 43 -15 52 -9 10 -18 46 -22 84 -3 36 -12 71 -19 77 -8 6 -14 21 -14
32 0 11 -9 39 -19 61 -10 23 -21 63 -24 89 -2 26 -12 56 -21 66 -9 10 -16 30
-16 44 0 15 -4 27 -8 27 -13 0 -32 47 -32 79 0 15 -7 36 -15 47 -8 10 -15 28
-15 40 0 11 -9 30 -20 42 -11 12 -20 27 -20 34 0 17 -24 86 -33 94 -4 4 -7 19
-7 32 0 14 -6 33 -14 41 -16 19 -50 84 -66 129 -7 17 -16 32 -21 32 -5 0 -9
15 -9 33 0 21 -7 36 -20 45 -11 7 -20 23 -20 36 0 13 -7 29 -14 36 -8 6 -20
28 -27 48 -6 20 -15 41 -20 47 -5 5 -9 15 -9 22 0 7 -9 22 -20 33 -11 11 -20
29 -20 40 0 11 -7 23 -15 26 -8 3 -17 16 -21 27 -4 12 -15 33 -25 46 -11 13
-19 34 -19 46 0 13 -7 25 -15 29 -8 3 -15 12 -15 19 0 8 -9 22 -20 32 -11 10
-20 24 -20 31 0 11 -33 68 -58 99 -16 20 -52 86 -52 95 0 5 -18 28 -40 52 -22
24 -40 48 -40 55 0 7 -6 16 -14 20 -7 4 -21 22 -30 38 -9 17 -25 44 -36 60
-11 17 -23 36 -26 44 -4 7 -24 32 -45 55 -22 22 -39 47 -39 54 0 7 -7 15 -15
18 -8 4 -15 11 -15 18 0 6 -9 19 -20 28 -10 9 -31 35 -46 57 -15 23 -31 41
-35 41 -5 0 -9 6 -9 13 0 6 -18 32 -40 57 -22 25 -64 72 -92 105 -29 32 -63
70 -75 83 -13 12 -23 26 -23 29 0 3 -25 30 -55 60 -30 30 -55 58 -55 64 0 5
-6 9 -14 9 -7 0 -16 9 -19 20 -3 11 -12 20 -21 20 -9 0 -16 3 -16 8 0 9 -84
102 -93 102 -3 0 -31 25 -61 55 -30 30 -59 55 -65 55 -6 0 -11 5 -11 11 0 15
-52 69 -67 69 -7 0 -13 7 -13 15 0 8 -5 15 -11 15 -15 0 -148 109 -160 131 -5
11 -16 19 -24 19 -7 0 -17 9 -20 20 -4 11 -15 20 -26 20 -11 0 -22 7 -25 15
-3 8 -15 17 -26 21 -11 3 -35 21 -52 40 -17 19 -36 34 -43 34 -7 0 -17 9 -23
20 -6 11 -18 20 -28 20 -9 0 -23 9 -30 20 -7 11 -19 20 -27 20 -7 0 -31 16
-52 35 -21 19 -43 35 -48 35 -6 0 -16 9 -23 20 -7 11 -19 20 -27 20 -8 0 -24
9 -35 20 -11 11 -29 20 -40 20 -11 0 -20 5 -20 10 0 6 -8 13 -17 17 -10 3 -25
12 -33 20 -47 41 -80 63 -97 63 -10 0 -24 9 -31 20 -7 11 -20 20 -30 20 -9 0
-35 16 -56 35 -22 19 -47 35 -56 35 -9 0 -25 9 -35 20 -10 11 -31 20 -47 20
-15 0 -28 5 -28 10 0 6 -12 16 -27 23 -16 6 -32 17 -36 24 -4 7 -17 13 -28 13
-10 0 -27 9 -36 20 -11 12 -30 20 -49 20 -18 0 -38 8 -49 20 -10 11 -24 20
-30 20 -7 0 -18 7 -25 15 -7 8 -27 17 -45 21 -19 3 -36 12 -39 20 -3 8 -17 14
-31 14 -28 0 -96 34 -127 63 -10 9 -33 17 -52 17 -18 0 -39 7 -46 15 -7 8 -28
17 -49 21 -20 4 -45 13 -56 20 -11 8 -27 14 -36 14 -9 0 -24 9 -34 20 -13 14
-31 20 -59 20 -23 0 -50 6 -61 14 -11 7 -31 17 -45 21 -14 4 -30 15 -36 23 -7
9 -34 17 -70 20 -32 3 -68 11 -79 18 -11 8 -29 14 -40 14 -11 0 -28 9 -38 20
-13 16 -29 20 -81 20 -43 0 -67 5 -76 15 -6 7 -33 17 -58 21 -26 4 -56 13 -67
20 -11 7 -44 16 -72 20 -29 3 -58 13 -64 20 -8 10 -36 14 -88 14 -54 1 -87 6
-116 20 -26 13 -62 20 -105 20 -37 0 -89 9 -120 20 -35 12 -82 19 -128 20 -42
0 -84 6 -100 14 -15 8 -78 17 -147 21 -66 4 -124 10 -130 14 -14 8 -113 11
-582 15 -312 3 -405 1 -420 -8z"/>
</g>
</svg>
